<svg width="36" height="36" viewBox="0 0 36 36" fill="none" xmlns="http://www.w3.org/2000/svg">
<path d="M17.9908 36H18.0078C27.9445 36 35.9986 27.9445 35.9986 18.0092V18.0007C36 8.05832 27.9417 0 18.0007 0C8.05832 0 0 8.05833 0 17.9993V18.0078C0 27.9445 8.05549 35.9986 17.9908 35.9986V36Z" fill="#46494F"/>
<path d="M25.5267 10.6316L8.42971 17.1052C7.49478 17.3748 7.52457 18.2984 8.21549 18.5211L12.4986 19.8575L14.1372 24.8826C14.3358 25.4331 14.499 25.6402 14.8395 25.6445C15.197 25.6487 15.3346 25.5182 15.7049 25.1905C16.1405 24.7819 16.8016 24.1392 17.8486 23.122L22.3048 26.4149C23.1248 26.8674 23.7164 26.6333 23.9207 25.653L26.7142 11.8347C27.0135 10.6344 26.3084 10.2755 25.5239 10.6316H25.5267ZM13.1725 19.5511L22.912 13.4407C23.3915 13.1186 23.5419 13.4776 23.3263 13.7258L15.2438 20.9968L14.8296 24.6259L13.1739 19.5511H13.1725Z" fill="white"/>
</svg>
