<svg width="37" height="36" viewBox="0 0 37 36" fill="none" xmlns="http://www.w3.org/2000/svg">
<path d="M18.358 36H18.375C28.3117 36 36.3658 27.9446 36.3658 18.0093V18.0008C36.3658 8.05979 28.3074 0.00146484 18.3665 0.00146484C8.42551 0.00146484 0.367188 8.05979 0.367188 18.0008V18.0093C0.367188 27.946 8.42268 36 18.358 36Z" fill="#46494F"/>
<path d="M28.8852 12.0568C28.1574 12.3802 27.3743 12.5987 26.5528 12.6966C27.3913 12.1944 28.0354 11.3985 28.339 10.4493C27.5544 10.9147 26.6848 11.2523 25.7598 11.4354C25.0192 10.6465 23.9637 10.1528 22.7961 10.1528C20.5531 10.1528 18.7343 11.9716 18.7343 14.2132C18.7343 14.531 18.7697 14.8417 18.8392 15.1382C15.4641 14.9694 12.472 13.352 10.4688 10.8948C10.1198 11.4949 9.91833 12.1915 9.91833 12.9364C9.91833 14.3451 10.6348 15.5879 11.7244 16.3172C11.059 16.2959 10.4319 16.1143 9.88429 15.8093C9.88429 15.8263 9.88429 15.8433 9.88429 15.8603C9.88429 17.8281 11.2846 19.4696 13.1417 19.8427C12.8012 19.9349 12.4422 19.9846 12.0719 19.9846C11.8109 19.9846 11.5555 19.959 11.3073 19.9122C11.8237 21.5253 13.3233 22.7 15.1009 22.7326C13.7106 23.8222 11.9599 24.472 10.0574 24.472C9.72964 24.472 9.40617 24.4521 9.08838 24.4152C10.8859 25.5672 13.0197 26.2397 15.3137 26.2397C22.7833 26.2397 26.8678 20.0512 26.8678 14.6856C26.8678 14.5097 26.8635 14.3352 26.8564 14.1607C27.6495 13.5876 28.339 12.8725 28.8824 12.0582L28.8852 12.0568Z" fill="white"/>
</svg>
