<svg width="37" height="36" viewBox="0 0 37 36" fill="none" xmlns="http://www.w3.org/2000/svg">
<path d="M18.8741 36H18.8911C28.8278 36 36.8819 27.9446 36.8819 18.0093V18.0008C36.8819 8.05979 28.8236 0.00146484 18.8826 0.00146484C8.94163 0.00146484 0.883301 8.05979 0.883301 18.0008V18.0093C0.883301 27.946 8.9388 36 18.8741 36Z" fill="#46494F"/>
<path d="M18.8145 18.5284C21.6065 18.5284 23.8751 16.2599 23.8751 13.4693C23.8751 10.6786 21.6065 8.40869 18.8145 8.40869C16.0224 8.40869 13.7539 10.6786 13.7539 13.4693C13.7539 16.2599 16.0239 18.5284 18.8145 18.5284ZM18.8145 11.3738C19.9707 11.3738 20.9099 12.313 20.9099 13.4693C20.9099 14.6255 19.9707 15.5633 18.8145 15.5633C17.6582 15.5633 16.719 14.6227 16.719 13.4693C16.719 12.3158 17.6596 11.3738 18.8145 11.3738Z" fill="white"/>
<path d="M20.8617 22.6567C21.8917 22.4212 22.8848 22.014 23.7999 21.4394C24.4922 21.0024 24.7008 20.0874 24.2652 19.395C23.8297 18.7013 22.9146 18.4927 22.2208 18.9283C20.1481 20.2321 17.4795 20.2307 15.4067 18.9283C14.713 18.4913 13.7979 18.7013 13.3623 19.395C12.9254 20.0888 13.1339 21.0024 13.8263 21.4394C14.7413 22.014 15.7345 22.4212 16.7644 22.6567L13.9355 25.4856C13.3567 26.0644 13.3567 27.0036 13.9355 27.5825C14.2249 27.8719 14.6037 28.0166 14.9839 28.0166C15.3642 28.0166 15.743 27.8719 16.0338 27.5825L18.8131 24.8018L21.5938 27.5825C22.1726 28.1613 23.1104 28.1613 23.6892 27.5825C24.2695 27.0036 24.2695 26.0644 23.6892 25.4856L20.8603 22.6567H20.8617Z" fill="white"/>
</svg>
