<svg width="37" height="36" viewBox="0 0 37 36" fill="none" xmlns="http://www.w3.org/2000/svg">
<path d="M18.7769 36H18.7939C28.7307 36 36.7847 27.9446 36.7847 18.0093V18.0008C36.7847 8.05979 28.7264 0.00146484 18.7854 0.00146484C8.84446 0.00146484 0.786133 8.05979 0.786133 18.0008V18.0093C0.786133 27.946 8.84163 36 18.7769 36Z" fill="#46494F"/>
<path d="M23.9776 21.1768C23.6499 21.1768 23.4854 21.4265 23.4854 21.9287V22.4295H24.4671V21.9287C24.4671 21.4279 24.3025 21.1768 23.9776 21.1768Z" fill="white"/>
<path d="M26.3751 18.4222C26.1765 17.5582 25.47 16.9212 24.6202 16.8262C22.6056 16.6006 20.5683 16.6006 18.5381 16.6006C16.508 16.6006 14.4693 16.6006 12.4561 16.8262C11.6063 16.9212 10.8998 17.5582 10.7011 18.4222C10.4188 19.6523 10.4146 20.9944 10.4146 22.2613C10.4146 23.5282 10.4145 24.8703 10.6969 26.1003C10.8955 26.9643 11.602 27.6013 12.4518 27.6964C14.465 27.922 16.5037 27.922 18.5339 27.922C20.5641 27.922 22.6013 27.922 24.6159 27.6964C25.4657 27.6013 26.1723 26.9643 26.3709 26.1003C26.6532 24.8703 26.656 23.5282 26.656 22.2613C26.656 20.9944 26.6575 19.6523 26.3751 18.4222ZM15.0467 19.5288H13.8705V25.7754H12.7796V19.5288H11.6247V18.5059H15.0467V19.5288ZM18.0118 25.7754H17.03V25.1838C16.6399 25.6322 16.2696 25.8492 15.9092 25.8492C15.5929 25.8492 15.3758 25.7201 15.2765 25.4463C15.2226 25.2817 15.19 25.0235 15.19 24.6405V20.3574H16.1717V24.3454C16.1717 24.5752 16.1717 24.6958 16.1802 24.727C16.2043 24.8788 16.2781 24.9568 16.4101 24.9568C16.6073 24.9568 16.813 24.805 17.03 24.4972V20.3574H18.0118V25.774V25.7754ZM21.7402 24.1496C21.7402 24.6504 21.7061 25.0122 21.6409 25.2406C21.5104 25.6435 21.2479 25.8492 20.8563 25.8492C20.5073 25.8492 20.1697 25.6549 19.8419 25.2491V25.774H18.8602V18.5045H19.8419V20.878C20.1583 20.4879 20.496 20.2907 20.8563 20.2907C21.2479 20.2907 21.5104 20.4964 21.6409 20.9021C21.7061 21.1206 21.7402 21.4781 21.7402 21.9917V24.1482V24.1496ZM25.4445 23.2459H23.4824V24.2063C23.4824 24.7071 23.6469 24.9583 23.9832 24.9583C24.2244 24.9583 24.3662 24.8263 24.4216 24.5639C24.4301 24.5099 24.4428 24.2929 24.4428 23.8985H25.4445V24.0418C25.4445 24.3581 25.4317 24.5752 25.4232 24.6745C25.3906 24.8916 25.3125 25.0888 25.1934 25.2619C24.9224 25.6549 24.5195 25.8492 24.0059 25.8492C23.4923 25.8492 23.1022 25.6648 22.8184 25.2945C22.6099 25.0235 22.5035 24.5965 22.5035 24.0205V22.1237C22.5035 21.5448 22.5985 21.1206 22.8071 20.8468C23.0908 20.4765 23.481 20.2921 23.9832 20.2921C24.4854 20.2921 24.8656 20.4765 25.1409 20.8468C25.3466 21.1206 25.4445 21.5448 25.4445 22.1237V23.2459Z" fill="white"/>
<path d="M20.3342 21.1768C20.1725 21.1768 20.0093 21.2534 19.8447 21.4151V24.7165C20.0093 24.881 20.1725 24.9576 20.3342 24.9576C20.6179 24.9576 20.7612 24.7165 20.7612 24.227V21.9159C20.7612 21.4265 20.6165 21.1768 20.3342 21.1768Z" fill="white"/>
<path fill-rule="evenodd" clip-rule="evenodd" d="M16.8384 8.27686H15.7262L14.9771 11.1597L14.1968 8.27686H13.0405C13.2718 8.95784 13.513 9.64166 13.7456 10.3226C14.0975 11.347 14.3174 12.1187 14.4167 12.6451V15.6187H15.5162V12.6451L16.8384 8.27686ZM19.7766 13.8482V11.9315C19.7766 11.347 19.6759 10.9199 19.4688 10.6419C19.1935 10.2687 18.809 10.0815 18.3125 10.0815C17.8159 10.0815 17.4329 10.2687 17.1577 10.6419C16.9463 10.9185 16.8469 11.3455 16.8469 11.9315V13.8482C16.8469 14.4298 16.9463 14.8611 17.1577 15.1349C17.4315 15.5081 17.8188 15.6953 18.3125 15.6953C18.8062 15.6953 19.1949 15.5081 19.4688 15.1349C19.6759 14.8611 19.7766 14.4298 19.7766 13.8482ZM18.7849 14.034C18.7849 14.5405 18.6317 14.793 18.3125 14.793C17.9933 14.793 17.8386 14.5391 17.8386 14.034V11.7314C17.8386 11.225 17.9919 10.9738 18.3125 10.9738C18.6331 10.9738 18.7849 11.225 18.7849 11.7314V14.034ZM23.4426 15.6187V10.1481H22.4509V14.3291C22.231 14.6398 22.0224 14.793 21.8252 14.793C21.6919 14.793 21.6153 14.715 21.5926 14.5604C21.5812 14.5277 21.5812 14.4071 21.5812 14.1745V10.1467H20.5924V14.4738C20.5924 14.8597 20.625 15.1222 20.6803 15.2867C20.7796 15.5648 20.9995 15.6939 21.3188 15.6939C21.6805 15.6939 22.0565 15.474 22.4509 15.0214V15.6187H23.4426Z" fill="white"/>
</svg>
