<svg width="31" height="30" viewBox="0 0 31 30" fill="none" xmlns="http://www.w3.org/2000/svg">
<rect x="0.560547" width="30" height="30" rx="15" fill="white"/>
<rect x="1.06055" y="0.5" width="29" height="29" rx="14.5" stroke="black" stroke-opacity="0.7"/>
<path d="M21.5458 15.4287C20.9913 14.8316 20.1827 14.4356 19.3137 14.2428V14.1625C19.9344 13.8953 20.4759 13.4779 20.84 12.9116C21.2041 12.3441 21.3957 11.6974 21.3957 10.9692C21.3957 10.3414 21.2692 9.78807 21.0055 9.30689C20.7419 8.82689 20.3458 8.44265 19.8114 8.15536C19.3173 7.88817 18.79 7.70492 18.226 7.62216C17.6621 7.53822 16.8333 7.48975 15.7397 7.48975H10.377V22.5104H16.4408C17.4753 22.5104 18.3277 22.3686 18.9992 22.1818C19.6696 21.995 20.2855 21.6568 20.8459 21.2159C21.32 20.8494 21.6971 20.3729 21.9773 19.8113C22.2575 19.2509 22.3876 18.5936 22.3876 17.8535C22.3876 16.8391 22.1003 16.0269 21.547 15.4298L21.5458 15.4287ZM14.0999 10.2196H14.457C15.1237 10.2196 15.6262 10.2338 15.9643 10.2432C16.3013 10.2539 16.5933 10.3165 16.8404 10.4229C17.1005 10.5364 17.292 10.7221 17.4162 10.9762C17.5391 11.2304 17.6018 11.4775 17.6018 11.7187C17.6018 12.0462 17.545 12.3335 17.4315 12.5806C17.318 12.8277 17.1111 13.0216 16.8108 13.1611C16.5366 13.2876 16.2717 13.3857 16.0152 13.3999C15.7586 13.4129 15.3094 13.4484 14.6686 13.4484H14.1011V10.2208L14.0999 10.2196ZM18.3064 18.7426C18.1492 19.0263 17.9009 19.2415 17.5604 19.3881C17.1738 19.5548 16.7931 19.6943 16.4195 19.7085C16.0459 19.7215 15.372 19.7782 14.3967 19.7782H14.0999V15.9299H14.8873C15.5541 15.9299 16.0873 15.9418 16.4845 15.9524C16.8818 15.9619 17.1939 16.0151 17.4209 16.1014C17.7945 16.235 18.0747 16.4336 18.2615 16.6937C18.4483 16.9538 18.5417 17.3156 18.5417 17.7755C18.5417 18.1361 18.4636 18.4588 18.3064 18.7426Z" fill="black" fill-opacity="0.7"/>
</svg>
