<svg width="31" height="30" viewBox="0 0 31 30" fill="none" xmlns="http://www.w3.org/2000/svg">
<rect x="0.126953" width="30" height="30" rx="15" fill="white"/>
<rect x="0.626953" y="0.5" width="29" height="29" rx="14.5" stroke="black" stroke-opacity="0.7"/>
<path d="M23.4973 10.5866C22.8908 10.8562 22.2382 11.0382 21.5537 11.1198C22.2524 10.7013 22.7892 10.038 23.0422 9.24709C22.3884 9.63488 21.6636 9.91626 20.8928 10.0688C20.2757 9.41143 19.3961 9 18.4231 9C16.5539 9 15.0382 10.5157 15.0382 12.3836C15.0382 12.6485 15.0678 12.9074 15.1257 13.1545C12.3131 13.0138 9.81971 11.666 8.15035 9.61833C7.85951 10.1184 7.69163 10.6989 7.69163 11.3196C7.69163 12.4936 8.28867 13.5293 9.19665 14.1369C8.64217 14.1192 8.11961 13.9679 7.66326 13.7137C7.66326 13.7279 7.66326 13.7421 7.66326 13.7563C7.66326 15.3961 8.83015 16.7639 10.3777 17.0749C10.094 17.1517 9.79488 17.1931 9.48631 17.1931C9.26877 17.1931 9.05596 17.1718 8.84907 17.1328C9.27941 18.477 10.5291 19.456 12.0104 19.4832C10.8518 20.3911 9.39291 20.9326 7.80749 20.9326C7.53439 20.9326 7.26483 20.9161 7 20.8853C8.49793 21.8453 10.2761 22.4057 12.1878 22.4057C18.4124 22.4057 21.8162 17.2487 21.8162 12.7773C21.8162 12.6307 21.8126 12.4853 21.8067 12.3399C22.4676 11.8623 23.0422 11.2664 23.495 10.5878L23.4973 10.5866Z" fill="black" fill-opacity="0.7"/>
</svg>
