<svg width="31" height="30" viewBox="0 0 31 30" fill="none" xmlns="http://www.w3.org/2000/svg">
<rect x="0.375" width="30" height="30" rx="15" fill="white"/>
<rect x="0.875" y="0.5" width="29" height="29" rx="14.5" stroke="black" stroke-opacity="0.7"/>
<path fill-rule="evenodd" clip-rule="evenodd" d="M16.1377 7.3208C12.0069 7.3208 8.65752 10.6702 8.65752 14.801C8.65752 16.2138 9.05004 17.5356 9.73103 18.6635L8.38086 22.6761L12.5223 21.3508C13.5947 21.9431 14.8266 22.2812 16.1377 22.2812C20.2697 22.2812 23.6179 18.9318 23.6179 14.801C23.6179 10.6702 20.2686 7.3208 16.1377 7.3208ZM16.1377 21.028C14.8727 21.028 13.6952 20.6485 12.7115 19.9982L10.3186 20.7643L11.0965 18.4518C10.3505 17.4244 9.91073 16.1642 9.91073 14.801C9.91073 11.3677 12.7044 8.574 16.1377 8.574C19.571 8.574 22.3647 11.3677 22.3647 14.801C22.3647 18.2343 19.571 21.028 16.1377 21.028ZM19.6455 16.5011C19.4575 16.3982 18.5365 15.9017 18.3639 15.8308C18.1913 15.761 18.0648 15.7243 17.93 15.91C17.7952 16.0956 17.4134 16.5117 17.2975 16.6359C17.1817 16.7588 17.0693 16.7707 16.8814 16.6678C16.6946 16.5649 16.0869 16.3403 15.3811 15.6629C14.8325 15.1356 14.4731 14.496 14.3679 14.3009C14.2638 14.1058 14.3679 14.0065 14.466 13.9143C14.5546 13.8315 14.6658 13.6979 14.7651 13.5904C14.8644 13.4828 14.8999 13.4047 14.9684 13.2794C15.037 13.1541 15.0098 13.0418 14.9649 12.9448C14.9212 12.8479 14.5736 11.8938 14.4294 11.506C14.2851 11.1182 14.1231 11.1762 14.012 11.1714C13.9009 11.1679 13.7744 11.1466 13.6467 11.1419C13.519 11.1372 13.3109 11.1774 13.1289 11.3618C12.9468 11.5462 12.436 11.9896 12.4006 12.9295C12.3651 13.8682 13.0153 14.8022 13.1064 14.9334C13.1974 15.0646 14.3478 17.1005 16.2595 17.9387C18.1724 18.7758 18.1819 18.5204 18.533 18.5015C18.8841 18.4826 19.6798 18.0818 19.8559 17.642C20.0321 17.2022 20.0463 16.8203 20.0014 16.7387C19.9564 16.6572 19.8311 16.6051 19.6443 16.5023L19.6455 16.5011Z" fill="black" fill-opacity="0.7"/>
</svg>
