<svg width="47" height="46" viewBox="0 0 47 46" fill="none" xmlns="http://www.w3.org/2000/svg">
<path d="M23.4203 45.4144H23.4418C35.9771 45.4144 46.1375 35.2522 46.1375 22.7186V22.7079C46.1375 10.1672 35.9718 0.00146484 23.4311 0.00146484C10.8903 0.00146484 0.724609 10.1672 0.724609 22.7079V22.7186C0.724609 35.254 10.8868 45.4144 23.4203 45.4144Z" fill="white"/>
<path fill-rule="evenodd" clip-rule="evenodd" d="M31.0241 23.1941C32.9749 22.965 34.9383 22.9113 36.8998 22.8594C36.8551 26.6483 35.1495 30.3817 32.2698 32.8515C29.8948 34.9527 26.7502 36.1249 23.5859 36.1679C23.6754 33.7625 23.6719 31.332 24.1533 28.9642C24.4772 27.3212 25.3274 25.7516 26.6876 24.744C27.9243 23.7757 29.4939 23.3963 31.0223 23.1958L31.0241 23.1941Z" fill="#BE2729"/>
<path fill-rule="evenodd" clip-rule="evenodd" d="M9.97054 22.8564C12.3079 22.9441 14.665 22.9459 16.9702 23.3808C18.5148 23.6744 20.0307 24.3652 21.0759 25.5697C22.3376 26.9406 22.7905 28.827 22.9855 30.6293C23.1824 32.4691 23.2272 34.3233 23.2808 36.1721C19.4991 36.1256 15.7657 34.4235 13.2959 31.5528C11.1965 29.1707 10.0153 26.0261 9.96875 22.8564H9.97054Z" fill="#BE2729"/>
<path fill-rule="evenodd" clip-rule="evenodd" d="M23.5859 9.24316C27.4357 9.28254 31.2353 11.0544 33.7051 14.0128C35.7222 16.3735 36.8533 19.4536 36.898 22.5553C34.6304 22.4729 32.3467 22.464 30.106 22.072C28.5167 21.7964 26.9417 21.1324 25.8535 19.91C24.735 18.7324 24.2177 17.127 23.9868 15.5502C23.6844 13.4616 23.6575 11.3479 23.5877 9.24316H23.5859Z" fill="#BE2729"/>
<path fill-rule="evenodd" clip-rule="evenodd" d="M15.7586 11.6614C17.9438 10.1097 20.6123 9.29539 23.2844 9.2417C23.177 11.8171 23.2236 14.4391 22.5918 16.9573C22.1462 18.7757 20.9309 20.3972 19.2629 21.2652C17.6593 22.0724 15.8391 22.2549 14.0726 22.382C12.7053 22.4661 11.3379 22.5323 9.96875 22.5413C10.0171 18.262 12.2184 14.074 15.7586 11.6596V11.6614Z" fill="#BE2729"/>
</svg>
