<svg width="47" height="46" viewBox="0 0 47 46" fill="none" xmlns="http://www.w3.org/2000/svg">
<path d="M23.3744 45.4144H23.3959C35.9313 45.4144 46.0916 35.2522 46.0916 22.7186V22.7079C46.0916 10.1672 35.9259 0.00146484 23.3852 0.00146484C10.8444 0.00146484 0.678711 10.1672 0.678711 22.7079V22.7186C0.678711 35.254 10.8409 45.4144 23.3744 45.4144Z" fill="white"/>
<path d="M23.3 23.3741C26.8222 23.3741 29.684 20.5123 29.684 16.9919C29.684 13.4715 26.8222 10.6079 23.3 10.6079C19.7778 10.6079 16.916 13.4715 16.916 16.9919C16.916 20.5123 19.7796 23.3741 23.3 23.3741ZM23.3 14.3485C24.7587 14.3485 25.9435 15.5333 25.9435 16.9919C25.9435 18.4506 24.7587 19.6336 23.3 19.6336C21.8414 19.6336 20.6566 18.447 20.6566 16.9919C20.6566 15.5369 21.8432 14.3485 23.3 14.3485Z" fill="#BE2729"/>
<path d="M25.8827 28.5825C27.1821 28.2854 28.4349 27.7717 29.5892 27.0469C30.4626 26.4956 30.7257 25.3413 30.1763 24.4679C29.6268 23.5927 28.4724 23.3296 27.5973 23.879C24.9825 25.5238 21.6159 25.522 19.0011 23.879C18.1259 23.3278 16.9716 23.5927 16.4221 24.4679C15.8709 25.343 16.134 26.4956 17.0074 27.0469C18.1617 27.7717 19.4146 28.2854 20.7139 28.5825L17.1452 32.1512C16.415 32.8814 16.415 34.0662 17.1452 34.7965C17.5103 35.1616 17.9881 35.3441 18.4678 35.3441C18.9474 35.3441 19.4253 35.1616 19.7922 34.7965L23.2983 31.2886L26.8062 34.7965C27.5364 35.5267 28.7194 35.5267 29.4496 34.7965C30.1816 34.0662 30.1816 32.8814 29.4496 32.1512L25.8809 28.5825H25.8827Z" fill="#BE2729"/>
</svg>
