<svg width="47" height="46" viewBox="0 0 47 46" fill="none" xmlns="http://www.w3.org/2000/svg">
<path d="M23.3295 45.4144H23.351C35.8863 45.4144 46.0467 35.2522 46.0467 22.7186V22.7079C46.0467 10.1672 35.8809 0.00146484 23.3402 0.00146484C10.7995 0.00146484 0.633789 10.1672 0.633789 22.7079V22.7186C0.633789 35.254 10.7959 45.4144 23.3295 45.4144Z" fill="white"/>
<path d="M29.8886 26.7139C29.4752 26.7139 29.2676 27.0289 29.2676 27.6624V28.2942H30.5061V27.6624C30.5061 27.0307 30.2985 26.7139 29.8886 26.7139Z" fill="#BE2729"/>
<path d="M32.9139 23.2394C32.6633 22.1495 31.772 21.3459 30.7 21.226C28.1585 20.9414 25.5885 20.9414 23.0274 20.9414C20.4662 20.9414 17.8944 20.9414 15.3547 21.226C14.2827 21.3459 13.3914 22.1495 13.1408 23.2394C12.7847 24.7911 12.7793 26.4842 12.7793 28.0825C12.7793 29.6807 12.7793 31.3738 13.1355 32.9255C13.386 34.0155 14.2773 34.8191 15.3494 34.939C17.889 35.2235 20.4609 35.2235 23.022 35.2235C25.5831 35.2235 28.1532 35.2235 30.6946 34.939C31.7667 34.8191 32.6579 34.0155 32.9085 32.9255C33.2647 31.3738 33.2682 29.6807 33.2682 28.0825C33.2682 26.4842 33.27 24.7911 32.9139 23.2394ZM18.6228 24.6354H17.1391V32.5157H15.7628V24.6354H14.306V23.345H18.6228V24.6354ZM22.3634 32.5157H21.1249V31.7693C20.6327 32.3349 20.1656 32.6087 19.711 32.6087C19.3118 32.6087 19.038 32.4459 18.9127 32.1004C18.8447 31.8928 18.8036 31.5671 18.8036 31.0839V25.6806H20.0421V30.7116C20.0421 31.0015 20.0421 31.1537 20.0528 31.193C20.0832 31.3845 20.1763 31.483 20.3427 31.483C20.5915 31.483 20.851 31.2915 21.1249 30.9031V25.6806H22.3634V32.5139V32.5157ZM27.0668 30.4646C27.0668 31.0964 27.0238 31.5528 26.9415 31.8409C26.7769 32.3492 26.4458 32.6087 25.9518 32.6087C25.5115 32.6087 25.0855 32.3635 24.6721 31.8517V32.5139H23.4336V23.3432H24.6721V26.3375C25.0712 25.8453 25.4972 25.5965 25.9518 25.5965C26.4458 25.5965 26.7769 25.856 26.9415 26.3679C27.0238 26.6435 27.0668 27.0945 27.0668 27.7424V30.4628V30.4646ZM31.7398 29.3246H29.2646V30.5362C29.2646 31.168 29.4722 31.4848 29.8964 31.4848C30.2006 31.4848 30.3796 31.3183 30.4494 30.9872C30.4601 30.9192 30.4763 30.6454 30.4763 30.1478H31.7398V30.3286C31.7398 30.7277 31.7237 31.0015 31.713 31.1268C31.6718 31.4007 31.5734 31.6494 31.423 31.8678C31.0812 32.3635 30.5729 32.6087 29.925 32.6087C29.2771 32.6087 28.785 32.3761 28.427 31.9089C28.1639 31.5671 28.0297 31.0284 28.0297 30.3018V27.9089C28.0297 27.1787 28.1496 26.6435 28.4127 26.2981C28.7706 25.831 29.2628 25.5983 29.8964 25.5983C30.53 25.5983 31.0096 25.831 31.3568 26.2981C31.6163 26.6435 31.7398 27.1787 31.7398 27.9089V29.3246Z" fill="#BE2729"/>
<path d="M25.2923 26.7139C25.0882 26.7139 24.8824 26.8105 24.6748 27.0145V31.1793C24.8824 31.3869 25.0882 31.4835 25.2923 31.4835C25.6502 31.4835 25.831 31.1793 25.831 30.5618V27.6463C25.831 27.0289 25.6484 26.7139 25.2923 26.7139Z" fill="#BE2729"/>
<path fill-rule="evenodd" clip-rule="evenodd" d="M20.881 10.4414H19.4778L18.5328 14.0782L17.5485 10.4414H16.0898C16.3816 11.3005 16.6858 12.1631 16.9793 13.0222C17.4232 14.3144 17.7006 15.288 17.8259 15.952V19.7033H19.2129V15.952L20.881 10.4414ZM24.5875 17.4697V15.0518C24.5875 14.3144 24.4605 13.7757 24.1992 13.4249C23.852 12.9542 23.3669 12.718 22.7405 12.718C22.1141 12.718 21.6309 12.9542 21.2837 13.4249C21.017 13.7739 20.8917 14.3126 20.8917 15.0518V17.4697C20.8917 18.2035 21.017 18.7476 21.2837 19.093C21.6291 19.5637 22.1177 19.8 22.7405 19.8C23.3634 19.8 23.8538 19.5637 24.1992 19.093C24.4605 18.7476 24.5875 18.2035 24.5875 17.4697ZM23.3365 17.7042C23.3365 18.3431 23.1432 18.6617 22.7405 18.6617C22.3378 18.6617 22.1427 18.3413 22.1427 17.7042V14.7994C22.1427 14.1605 22.336 13.8437 22.7405 13.8437C23.145 13.8437 23.3365 14.1605 23.3365 14.7994V17.7042ZM29.2122 19.7033V12.8021H27.9612V18.0764C27.6838 18.4684 27.4207 18.6617 27.1719 18.6617C27.0037 18.6617 26.907 18.5633 26.8784 18.3682C26.8641 18.327 26.8641 18.1749 26.8641 17.8814V12.8003H25.6166V18.259C25.6166 18.7458 25.6578 19.0769 25.7276 19.2845C25.8529 19.6353 26.1303 19.7982 26.533 19.7982C26.9894 19.7982 27.4636 19.5208 27.9612 18.9498V19.7033H29.2122Z" fill="#BE2729"/>
</svg>
