<svg width="46" height="46" viewBox="0 0 46 46" fill="none" xmlns="http://www.w3.org/2000/svg">
<path d="M23.2836 45.4144H23.3051C35.8404 45.4144 46.0008 35.2522 46.0008 22.7186V22.7079C46.0008 10.1672 35.8351 0.00146484 23.2944 0.00146484C10.7536 0.00146484 0.587891 10.1672 0.587891 22.7079V22.7186C0.587891 35.254 10.7501 45.4144 23.2836 45.4144Z" fill="white"/>
<path fill-rule="evenodd" clip-rule="evenodd" d="M23.5062 11.0835C17.2528 11.0835 12.1825 16.1538 12.1825 22.4072C12.1825 24.5459 12.7767 26.5469 13.8076 28.2543L11.7637 34.3287L18.0331 32.3224C19.6564 33.219 21.5214 33.7309 23.5062 33.7309C29.7613 33.7309 34.8299 28.6605 34.8299 22.4072C34.8299 16.1538 29.7595 11.0835 23.5062 11.0835ZM23.5062 31.8338C21.5912 31.8338 19.8086 31.2592 18.3195 30.2749L14.6971 31.4346L15.8747 27.9339C14.7454 26.3786 14.0796 24.4708 14.0796 22.4072C14.0796 17.2098 18.3088 12.9806 23.5062 12.9806C28.7036 12.9806 32.9327 17.2098 32.9327 22.4072C32.9327 27.6046 28.7036 31.8338 23.5062 31.8338ZM28.8163 24.9808C28.5318 24.8251 27.1376 24.0734 26.8763 23.9661C26.615 23.8605 26.4234 23.805 26.2194 24.086C26.0154 24.367 25.4373 24.9969 25.2619 25.1849C25.0865 25.371 24.9165 25.3889 24.6319 25.2332C24.3492 25.0775 23.4292 24.7374 22.3607 23.7119C21.5303 22.9137 20.9862 21.9454 20.8269 21.6501C20.6694 21.3548 20.8269 21.2045 20.9755 21.0649C21.1097 20.9396 21.2779 20.7374 21.4283 20.5745C21.5786 20.4116 21.6323 20.2935 21.7361 20.1038C21.8399 19.9141 21.7988 19.7441 21.7308 19.5973C21.6646 19.4505 21.1384 18.0062 20.92 17.4192C20.7017 16.8321 20.4565 16.9198 20.2882 16.9127C20.12 16.9073 19.9285 16.8751 19.7352 16.8679C19.5419 16.8608 19.2269 16.9216 18.9513 17.2008C18.6757 17.48 17.9025 18.1512 17.8488 19.574C17.7951 20.9951 18.7795 22.409 18.9173 22.6076C19.0551 22.8063 20.7965 25.8882 23.6905 27.1572C26.5863 28.4243 26.6006 28.0377 27.1322 28.0091C27.6638 27.9804 28.8682 27.3737 29.1349 26.7079C29.4016 26.0422 29.4231 25.4641 29.355 25.3406C29.287 25.2171 29.0973 25.1383 28.8145 24.9826L28.8163 24.9808Z" fill="#BE2729"/>
</svg>
