<svg width="189" height="31" viewBox="0 0 189 31" fill="none" xmlns="http://www.w3.org/2000/svg">
<g clip-path="url(#clip0_144_3820)">
<path fill-rule="evenodd" clip-rule="evenodd" d="M0 0H21.649C26.9328 0 31.2556 4.28741 31.2556 9.52802V31H25.9812V12.3984C25.9812 8.4565 22.7293 5.2312 18.755 5.2312H0V0ZM0 7.74529V12.9765H14.9338C16.7149 12.9765 18.1721 14.4218 18.1721 16.1884V31H23.4464V13.564C23.4464 10.3643 20.8059 7.74529 17.5797 7.74529H0ZM0 15.4906V29.3719C0 30.2673 0.738758 31 1.64153 31H15.6373V17.1187C15.6373 16.2233 14.8985 15.4906 13.9957 15.4906H0ZM3.93101 19.3908V21.9049H8.25918C8.76072 21.9049 9.17009 22.3109 9.17009 22.8084V27.1011H11.7049V21.2717C11.7049 20.2364 10.8509 19.3908 9.80854 19.3908H3.93101Z" fill="#BE2729"/>
<path fill-rule="evenodd" clip-rule="evenodd" d="M37.3149 0C40.8854 0 44.4558 0 48.0262 0L61.2209 16.308V0C75.8483 0 90.4757 0 105.103 0L109.492 16.2462L114.123 0H114.264H122.109H122.25L126.881 16.2462L131.27 0H158.706V7.65118H151.496H150.497C149.435 7.65118 148.884 8.42827 148.884 9.48096V9.55625C148.884 9.96496 149.103 10.418 149.46 10.6224L156.003 14.3693C158.262 15.6627 159.653 18.0531 159.653 20.6398V22.2343C159.653 27.0756 155.696 31 150.815 31H140.497V23.3488H149.687C150.686 23.3488 151.496 22.5462 151.496 21.5553C151.496 21.1466 151.276 20.7688 150.92 20.5645L144.147 16.6871C141.889 15.3938 140.497 13.0034 140.497 10.4167V9.04268C140.497 8.56674 140.544 8.10157 140.633 7.65118H137.995L131.688 31H131.087H123.638L118.188 13.763L112.737 31H105.289H104.688L98.3784 7.65118H84.3894V11.6737H93.1637V19.3249H84.3894V23.3475H95.8002V30.9987C89.7396 30.9987 83.6791 30.9987 77.6186 30.9987C76.7226 30.9987 75.9893 30.2713 75.9893 29.3826V7.65118H69.6197V29.384C69.6197 30.2727 68.8863 31 67.9903 31H67.1946H62.6875L49.4238 14.6073V31H41.025V7.65118H37.3149V0Z" fill="#46494F"/>
<path d="M165.604 8.54779H162.503V11.6225H165.604V8.54779Z" fill="#BE2729"/>
<path fill-rule="evenodd" clip-rule="evenodd" d="M167.133 0H168.81H169.151H169.776H171.255H173.426C175.251 0 176.743 1.48022 176.743 3.28983V4.03331C176.743 5.32262 175.986 6.44522 174.889 6.983L178.378 11.6226H175.328L172.094 7.32314H171.255V11.6226H168.81V2.27882H167.133V0ZM171.255 2.21294V5.1102H172.791C173.512 5.1102 174.103 4.52403 174.103 3.80879V3.51435C174.103 2.79911 173.512 2.21294 172.791 2.21294H171.255Z" fill="#BE2729"/>
<path fill-rule="evenodd" clip-rule="evenodd" d="M178.163 0H179.609H180.181H181.988V7.19945C181.988 8.3355 182.925 9.26451 184.07 9.26451H184.54C185.686 9.26451 186.622 8.3355 186.622 7.19945V2.27882H185.146V0H186.622H187.165H189.001V7.43876C189.001 9.74044 187.102 11.6226 184.782 11.6226H183.829C181.508 11.6226 179.609 9.73909 179.609 7.43876V2.27882H178.163V0Z" fill="#BE2729"/>
</g>
<defs>
<clipPath id="clip0_144_3820">
<rect width="189" height="31" fill="white"/>
</clipPath>
</defs>
</svg>
