<svg width="60" height="41" viewBox="0 0 60 41" fill="none" xmlns="http://www.w3.org/2000/svg">
<path fill-rule="evenodd" clip-rule="evenodd" d="M53.4409 1.22266C56.0216 1.89677 58.0568 3.87947 58.7455 6.39748C60 10.9643 60 20.4878 60 20.4878C60 20.4878 60 30.0113 58.7455 34.5781C58.0568 37.0961 56.0216 39.0788 53.4409 39.753C48.7636 40.9756 30 40.9756 30 40.9756C30 40.9756 11.2364 40.9756 6.55909 39.753C3.97841 39.0788 1.94318 37.0961 1.25455 34.5781C0 30.0113 0 20.4878 0 20.4878C0 20.4878 0 10.9643 1.25455 6.39748C1.94318 3.87947 3.97841 1.89677 6.55909 1.22266C11.2364 0 30 0 30 0C30 0 48.7636 0 53.4409 1.22266ZM39.5454 20.4877L23.8636 11.8399V29.1355L39.5454 20.4877Z" fill="#BE2729"/>
</svg>
