<svg width="56" height="56" viewBox="0 0 56 56" fill="none" xmlns="http://www.w3.org/2000/svg">
<path fill-rule="evenodd" clip-rule="evenodd" d="M0 0H38.7881C48.255 0 56 7.74499 56 17.2119V56H46.5501V22.3971C46.5501 15.2763 40.7237 9.44991 33.6029 9.44991H0V0ZM0 13.9915V23.4414H26.7565C29.9478 23.4414 32.5586 26.0522 32.5586 29.2435V56H42.0085V24.5027C42.0085 18.7225 37.2775 13.9915 31.4973 13.9915H0ZM0 27.983V53.0589C0 54.6764 1.32362 56 2.9411 56H28.017V30.9241C28.017 29.3066 26.6934 27.983 25.0759 27.983H0ZM7.04311 35.0285V39.5701H14.7978C15.6964 39.5701 16.4299 40.3036 16.4299 41.2022V48.9569H20.9715V38.4262C20.9715 36.5562 19.4414 35.0285 17.5738 35.0285H7.04311Z" fill="white"/>
</svg>
