<svg width="37" height="36" viewBox="0 0 37 36" fill="none" xmlns="http://www.w3.org/2000/svg">
<path d="M18.6021 36H18.6191C28.5558 36 36.6099 27.9446 36.6099 18.0093V18.0008C36.6099 8.05979 28.5516 0.00146484 18.6106 0.00146484C8.66965 0.00146484 0.611328 8.05979 0.611328 18.0008V18.0093C0.611328 27.946 8.66682 36 18.6021 36Z" fill="#46494F"/>
<path d="M25.2654 18.516C24.6001 17.7995 23.6296 17.3242 22.5869 17.093V16.9965C23.3317 16.6759 23.9815 16.1751 24.4185 15.4955C24.8554 14.8145 25.0853 14.0385 25.0853 13.1645C25.0853 12.4112 24.9335 11.7472 24.6171 11.1698C24.3007 10.5938 23.8254 10.1327 23.1842 9.788C22.5911 9.46737 21.9584 9.24747 21.2817 9.14815C20.6049 9.04743 19.6104 8.98926 18.2981 8.98926H11.8628V27.0141H19.1394C20.3808 27.0141 21.4037 26.8438 22.2095 26.6197C23.0139 26.3955 23.7531 25.9898 24.4256 25.4606C24.9945 25.0208 25.447 24.449 25.7833 23.7751C26.1195 23.1027 26.2756 22.3139 26.2756 21.4258C26.2756 20.2085 25.9308 19.2338 25.2669 18.5174L25.2654 18.516ZM16.3303 12.2651H16.7588C17.5589 12.2651 18.1619 12.2821 18.5677 12.2935C18.972 12.3062 19.3224 12.3814 19.6189 12.5091C19.931 12.6453 20.1609 12.868 20.3098 13.1731C20.4574 13.4781 20.5326 13.7746 20.5326 14.064C20.5326 14.457 20.4645 14.8017 20.3283 15.0983C20.1921 15.3948 19.9438 15.6274 19.5835 15.7949C19.2543 15.9467 18.9365 16.0644 18.6287 16.0814C18.3208 16.097 17.7817 16.1396 17.0127 16.1396H16.3318V12.2665L16.3303 12.2651ZM21.3781 22.4926C21.1894 22.8331 20.8915 23.0913 20.4829 23.2672C20.019 23.4673 19.5622 23.6347 19.1139 23.6517C18.6655 23.6673 17.8569 23.7354 16.6864 23.7354H16.3303V19.1175H17.2752C18.0754 19.1175 18.7152 19.1317 19.1919 19.1444C19.6686 19.1558 20.0431 19.2196 20.3155 19.3232C20.7638 19.4835 21.1001 19.7219 21.3242 20.034C21.5484 20.3461 21.6605 20.7802 21.6605 21.3321C21.6605 21.7648 21.5668 22.1521 21.3781 22.4926Z" fill="white"/>
</svg>
