<svg width="37" height="36" viewBox="0 0 37 36" fill="none" xmlns="http://www.w3.org/2000/svg">
<path d="M18.9693 36H18.9863C28.923 36 36.9771 27.9446 36.9771 18.0093V18.0008C36.9771 8.05979 28.9188 0.00146484 18.9778 0.00146484C9.03684 0.00146484 0.978516 8.05979 0.978516 18.0008V18.0093C0.978516 27.946 9.03401 36 18.9693 36Z" fill="#46494F"/>
<path fill-rule="evenodd" clip-rule="evenodd" d="M24.9948 18.3864C26.5412 18.2048 28.0976 18.1622 29.6525 18.1211C29.617 21.1245 28.265 24.084 25.9823 26.0418C24.0996 27.7074 21.6069 28.6366 19.0986 28.6707C19.1696 26.7639 19.1667 24.8373 19.5484 22.9603C19.8052 21.658 20.4791 20.4137 21.5573 19.615C22.5376 18.8475 23.7818 18.5467 24.9934 18.3878L24.9948 18.3864Z" fill="white"/>
<path fill-rule="evenodd" clip-rule="evenodd" d="M8.30708 18.1187C10.1599 18.1882 12.0284 18.1896 13.8557 18.5343C15.08 18.767 16.2817 19.3146 17.1102 20.2694C18.1104 21.3562 18.4694 22.8515 18.624 24.2802C18.7801 25.7386 18.8155 27.2084 18.8581 28.6739C15.8603 28.637 12.9009 27.2878 10.9431 25.0122C9.2789 23.1239 8.34255 20.6312 8.30566 18.1187H8.30708Z" fill="white"/>
<path fill-rule="evenodd" clip-rule="evenodd" d="M19.0986 7.32764C22.1503 7.35885 25.1622 8.76338 27.1201 11.1085C28.719 12.9798 29.6156 15.4214 29.6511 17.8801C27.8535 17.8148 26.0433 17.8077 24.267 17.497C23.0072 17.2785 21.7587 16.7522 20.8962 15.7832C20.0095 14.8497 19.5994 13.5771 19.4164 12.3272C19.1767 10.6716 19.1554 8.99605 19.1001 7.32764H19.0986Z" fill="white"/>
<path fill-rule="evenodd" clip-rule="evenodd" d="M12.8952 9.24428C14.6275 8.01425 16.7428 7.36873 18.8609 7.32617C18.7758 9.36771 18.8127 11.4461 18.3119 13.4423C17.9586 14.8837 16.9953 16.169 15.6731 16.8571C14.4019 17.497 12.9591 17.6417 11.5588 17.7424C10.4749 17.8091 9.39098 17.8616 8.30566 17.8687C8.34397 14.4765 10.089 11.1567 12.8952 9.24286V9.24428Z" fill="white"/>
</svg>
