<svg width="37" height="36" viewBox="0 0 37 36" fill="none" xmlns="http://www.w3.org/2000/svg">
<path d="M18.6822 36H18.6992C28.6359 36 36.69 27.9446 36.69 18.0093V18.0008C36.69 8.05979 28.6317 0.00146484 18.6907 0.00146484C8.74975 0.00146484 0.691406 8.05979 0.691406 18.0008V18.0093C0.691406 27.946 8.7469 36 18.6822 36Z" fill="#46494F"/>
<path fill-rule="evenodd" clip-rule="evenodd" d="M18.8571 8.78516C13.9001 8.78516 9.88082 12.8044 9.88082 17.7614C9.88082 19.4568 10.3518 21.0429 11.169 22.3963L9.54883 27.2115L14.5186 25.6211C15.8054 26.3319 17.2837 26.7376 18.8571 26.7376C23.8155 26.7376 27.8333 22.7184 27.8333 17.7614C27.8333 12.8044 23.8141 8.78516 18.8571 8.78516ZM18.8571 25.2338C17.339 25.2338 15.926 24.7784 14.7456 23.9981L11.8741 24.9174L12.8076 22.1424C11.9124 20.9095 11.3847 19.3972 11.3847 17.7614C11.3847 13.6414 14.7371 10.289 18.8571 10.289C22.977 10.289 26.3294 13.6414 26.3294 17.7614C26.3294 21.8814 22.977 25.2338 18.8571 25.2338ZM23.0664 19.8015C22.8408 19.6781 21.7357 19.0822 21.5285 18.9971C21.3214 18.9134 21.1696 18.8694 21.0078 19.0922C20.8461 19.3149 20.3879 19.8143 20.2488 19.9632C20.1098 20.1108 19.975 20.125 19.7494 20.0016C19.5253 19.8781 18.796 19.6086 17.9491 18.7956C17.2908 18.1629 16.8595 17.3954 16.7332 17.1613C16.6084 16.9272 16.7332 16.808 16.851 16.6974C16.9574 16.598 17.0907 16.4377 17.2099 16.3086C17.3291 16.1795 17.3716 16.0859 17.4539 15.9355C17.5362 15.7851 17.5036 15.6503 17.4497 15.534C17.3972 15.4177 16.9801 14.2728 16.807 13.8074C16.6339 13.3421 16.4396 13.4116 16.3062 13.4059C16.1728 13.4017 16.021 13.3761 15.8678 13.3705C15.7146 13.3648 15.4649 13.413 15.2464 13.6343C15.0279 13.8557 14.415 14.3877 14.3725 15.5156C14.3299 16.642 15.1102 17.7628 15.2194 17.9203C15.3287 18.0778 16.7091 20.5208 19.0032 21.5267C21.2987 22.5311 21.31 22.2247 21.7314 22.202C22.1527 22.1793 23.1075 21.6983 23.3189 21.1706C23.5303 20.6428 23.5473 20.1846 23.4934 20.0867C23.4395 19.9888 23.2891 19.9264 23.065 19.8029L23.0664 19.8015Z" fill="white"/>
</svg>
