<svg width="46" height="46" viewBox="0 0 46 46" fill="none" xmlns="http://www.w3.org/2000/svg">
<path d="M22.6957 45.4147H22.7172C35.2525 45.4147 45.4129 35.2525 45.4129 22.719V22.7082C45.4147 10.1657 35.2489 0 22.7082 0C10.1657 0 0 10.1657 0 22.7064V22.7172C0 35.2525 10.1621 45.4129 22.6957 45.4129V45.4147Z" fill="white"/>
<path d="M32.2015 13.412L10.6333 21.5786C9.45387 21.9186 9.49146 23.0838 10.3631 23.3647L15.7663 25.0507L17.8334 31.3899C18.084 32.0844 18.2898 32.3457 18.7194 32.351C19.1704 32.3564 19.344 32.1917 19.8111 31.7783C20.3606 31.2629 21.1946 30.4521 22.5154 29.1689L28.137 33.3229C29.1714 33.8938 29.9178 33.5985 30.1755 32.3618L33.6995 14.9297C34.0771 13.4156 33.1876 12.9628 32.1979 13.412H32.2015ZM16.6164 24.6641L28.903 16.9557C29.5079 16.5494 29.6976 17.0022 29.4256 17.3154L19.2294 26.4878L18.7068 31.066L16.6182 24.6641H16.6164Z" fill="#BE2729"/>
</svg>
