<svg width="21" height="21" viewBox="0 0 21 21" fill="none" xmlns="http://www.w3.org/2000/svg">
<path d="M20.6 1C20.6 0.668629 20.3314 0.4 20 0.4L14.6 0.4C14.2686 0.4 14 0.668629 14 1C14 1.33137 14.2686 1.6 14.6 1.6L19.4 1.6L19.4 6.4C19.4 6.73137 19.6686 7 20 7C20.3314 7 20.6 6.73137 20.6 6.4L20.6 1ZM19.5757 0.575736L11.4329 8.71859L12.2814 9.56712L20.4243 1.42426L19.5757 0.575736Z" fill="white"/>
<path d="M0.4 20C0.4 20.3314 0.668629 20.6 1 20.6L6.4 20.6C6.73137 20.6 7 20.3314 7 20C7 19.6686 6.73137 19.4 6.4 19.4L1.6 19.4L1.6 14.6C1.6 14.2686 1.33137 14 0.999999 14C0.668629 14 0.4 14.2686 0.399999 14.6L0.4 20ZM1.42426 20.4243L9.56712 12.2814L8.71859 11.4329L0.575736 19.5757L1.42426 20.4243Z" fill="white"/>
</svg>
