<svg width="30" height="30" viewBox="0 0 30 30" fill="none" xmlns="http://www.w3.org/2000/svg">
<rect width="30" height="30" rx="15" fill="white"/>
<rect x="0.5" y="0.5" width="29" height="29" rx="14.5" stroke="black" stroke-opacity="0.7"/>
<path d="M21.2722 8.85975L7.02476 14.2544C6.24565 14.4791 6.27048 15.2487 6.84624 15.4343L10.4155 16.548L11.781 20.7356C11.9465 21.1943 12.0825 21.3669 12.3662 21.3705C12.6642 21.374 12.7788 21.2653 13.0874 20.9922C13.4504 20.6517 14.0013 20.1161 14.8738 19.2684L18.5873 22.0125C19.2707 22.3896 19.7637 22.1945 19.9339 21.3776L22.2618 9.86232C22.5113 8.86212 21.9237 8.56301 21.2699 8.85975H21.2722ZM10.9771 16.2927L19.0933 11.2006C19.4929 10.9323 19.6183 11.2314 19.4386 11.4383L12.7032 17.4974L12.358 20.5216L10.9783 16.2927H10.9771Z" fill="black" fill-opacity="0.7"/>
</svg>
