<svg width="31" height="30" viewBox="0 0 31 30" fill="none" xmlns="http://www.w3.org/2000/svg">
<rect x="0.6875" width="30" height="30" rx="15" fill="white"/>
<rect x="1.1875" y="0.5" width="29" height="29" rx="14.5" stroke="black" stroke-opacity="0.7"/>
<path fill-rule="evenodd" clip-rule="evenodd" d="M21.0726 15.3257C22.3765 15.1726 23.6887 15.1367 24.9998 15.1021C24.9699 17.6344 23.8299 20.1298 21.9051 21.7805C20.3178 23.1849 18.216 23.9684 16.1011 23.9971C16.1609 22.3894 16.1585 20.765 16.4803 19.1824C16.6968 18.0842 17.265 17.0351 18.1741 16.3617C19.0007 15.7145 20.0498 15.4609 21.0714 15.3269L21.0726 15.3257Z" fill="black" fill-opacity="0.7"/>
<path fill-rule="evenodd" clip-rule="evenodd" d="M7.0012 15.1001C8.56346 15.1587 10.1389 15.1599 11.6796 15.4506C12.712 15.6468 13.7251 16.1085 14.4237 16.9136C15.2671 17.8299 15.5697 19.0907 15.7001 20.2953C15.8317 21.525 15.8616 22.7643 15.8975 24C13.3699 23.9689 10.8746 22.8313 9.22377 20.9125C7.8206 19.3204 7.0311 17.2186 7 15.1001H7.0012Z" fill="black" fill-opacity="0.7"/>
<path fill-rule="evenodd" clip-rule="evenodd" d="M16.1011 6.00098C18.6741 6.02729 21.2137 7.21155 22.8645 9.1889C24.2126 10.7667 24.9687 12.8254 24.9986 14.8985C23.4829 14.8434 21.9566 14.8375 20.4589 14.5755C19.3967 14.3913 18.344 13.9475 17.6167 13.1304C16.8691 12.3433 16.5233 11.2703 16.369 10.2165C16.1669 8.82047 16.1489 7.40773 16.1023 6.00098H16.1011Z" fill="black" fill-opacity="0.7"/>
<path fill-rule="evenodd" clip-rule="evenodd" d="M10.8698 7.61729C12.3304 6.58017 14.1139 6.03589 15.8999 6C15.8281 7.72136 15.8592 9.47382 15.4369 11.1569C15.1391 12.3723 14.3268 13.456 13.212 14.0362C12.1401 14.5757 10.9236 14.6977 9.74292 14.7826C8.82901 14.8389 7.91511 14.8831 7 14.8891C7.0323 12.0289 8.50365 9.22979 10.8698 7.61609V7.61729Z" fill="black" fill-opacity="0.7"/>
</svg>
