<svg width="31" height="30" viewBox="0 0 31 30" fill="none" xmlns="http://www.w3.org/2000/svg">
<rect x="0.25" width="30" height="30" rx="15" fill="white"/>
<rect x="0.75" y="0.5" width="29" height="29" rx="14.5" stroke="black" stroke-opacity="0.7"/>
<path d="M15.0425 15.2576C17.3207 15.2576 19.1718 13.4065 19.1718 11.1294C19.1718 8.85225 17.3207 7 15.0425 7C12.7642 7 10.9131 8.85225 10.9131 11.1294C10.9131 13.4065 12.7653 15.2576 15.0425 15.2576ZM15.0425 9.41951C15.986 9.41951 16.7523 10.1859 16.7523 11.1294C16.7523 12.0729 15.986 12.8381 15.0425 12.8381C14.099 12.8381 13.3326 12.0705 13.3326 11.1294C13.3326 10.1882 14.1001 9.41951 15.0425 9.41951Z" fill="black" fill-opacity="0.7"/>
<path d="M16.7121 18.6264C17.5526 18.4342 18.363 18.102 19.1096 17.6331C19.6746 17.2766 19.8448 16.5299 19.4894 15.9649C19.134 15.3988 18.3873 15.2287 17.8212 15.5841C16.1298 16.6479 13.9523 16.6468 12.2609 15.5841C11.6948 15.2275 10.9481 15.3988 10.5927 15.9649C10.2362 16.531 10.4064 17.2766 10.9713 17.6331C11.718 18.102 12.5284 18.4342 13.3688 18.6264L11.0604 20.9348C10.5881 21.4071 10.5881 22.1735 11.0604 22.6458C11.2966 22.8819 11.6057 23 11.916 23C12.2262 23 12.5353 22.8819 12.7726 22.6458L15.0405 20.3768L17.3095 22.6458C17.7818 23.1181 18.547 23.1181 19.0193 22.6458C19.4928 22.1735 19.4928 21.4071 19.0193 20.9348L16.711 18.6264H16.7121Z" fill="black" fill-opacity="0.7"/>
</svg>
