<svg width="31" height="30" viewBox="0 0 31 30" fill="none" xmlns="http://www.w3.org/2000/svg">
<rect x="0.8125" width="30" height="30" rx="15" fill="white"/>
<rect x="1.3125" y="0.5" width="29" height="29" rx="14.5" stroke="black" stroke-opacity="0.7"/>
<path d="M20.3278 17.646C20.0547 17.646 19.9176 17.8541 19.9176 18.2726V18.6899H20.7357V18.2726C20.7357 17.8553 20.5986 17.646 20.3278 17.646Z" fill="black" fill-opacity="0.7"/>
<path d="M22.3256 15.3513C22.1601 14.6313 21.5714 14.1004 20.8632 14.0212C19.1844 13.8333 17.4866 13.8333 15.7948 13.8333C14.103 13.8333 12.4041 13.8333 10.7264 14.0212C10.0183 14.1004 9.42948 14.6313 9.26397 15.3513C9.0287 16.3763 9.02515 17.4947 9.02515 18.5505C9.02515 19.6063 9.02515 20.7247 9.26042 21.7497C9.42593 22.4697 10.0147 23.0005 10.7229 23.0798C12.4005 23.2677 14.0994 23.2677 15.7913 23.2677C17.4831 23.2677 19.1808 23.2677 20.8596 23.0798C21.5678 23.0005 22.1566 22.4697 22.3221 21.7497C22.5574 20.7247 22.5597 19.6063 22.5597 18.5505C22.5597 17.4947 22.5609 16.3763 22.3256 15.3513ZM12.8852 16.2734H11.9051V21.479H10.996V16.2734H10.0336V15.421H12.8852V16.2734ZM15.3562 21.479H14.5381V20.986C14.2129 21.3596 13.9044 21.5404 13.6041 21.5404C13.3404 21.5404 13.1595 21.4329 13.0768 21.2047C13.0318 21.0675 13.0047 20.8524 13.0047 20.5332V16.9639H13.8228V20.2872C13.8228 20.4788 13.8228 20.5793 13.8299 20.6053C13.85 20.7318 13.9115 20.7968 14.0214 20.7968C14.1857 20.7968 14.3572 20.6703 14.5381 20.4137V16.9639H15.3562V21.4778V21.479ZM18.4632 20.1241C18.4632 20.5414 18.4348 20.8429 18.3804 21.0333C18.2716 21.369 18.0529 21.5404 17.7266 21.5404C17.4358 21.5404 17.1544 21.3785 16.8813 21.0403V21.4778H16.0632V15.4199H16.8813V17.3978C17.1449 17.0727 17.4263 16.9083 17.7266 16.9083C18.0529 16.9083 18.2716 17.0798 18.3804 17.4179C18.4348 17.6 18.4632 17.8979 18.4632 18.3259V20.1229V20.1241ZM21.5501 19.371H19.915V20.1714C19.915 20.5887 20.0521 20.798 20.3323 20.798C20.5333 20.798 20.6515 20.688 20.6977 20.4693C20.7048 20.4244 20.7154 20.2435 20.7154 19.9148H21.5501V20.0342C21.5501 20.2979 21.5394 20.4788 21.5323 20.5615C21.5052 20.7424 21.4401 20.9067 21.3408 21.051C21.115 21.3785 20.7792 21.5404 20.3513 21.5404C19.9233 21.5404 19.5982 21.3867 19.3617 21.0782C19.1879 20.8524 19.0992 20.4965 19.0992 20.0165V18.4358C19.0992 17.9534 19.1784 17.6 19.3522 17.3718C19.5887 17.0632 19.9138 16.9095 20.3323 16.9095C20.7509 16.9095 21.0677 17.0632 21.2971 17.3718C21.4685 17.6 21.5501 17.9534 21.5501 18.4358V19.371Z" fill="black" fill-opacity="0.7"/>
<path d="M17.2912 17.646C17.1564 17.646 17.0204 17.7098 16.8833 17.8446V20.5958C17.0204 20.7329 17.1564 20.7967 17.2912 20.7967C17.5276 20.7967 17.6471 20.5958 17.6471 20.1879V18.262C17.6471 17.8541 17.5265 17.646 17.2912 17.646Z" fill="black" fill-opacity="0.7"/>
<path fill-rule="evenodd" clip-rule="evenodd" d="M14.3785 6.89648H13.4516L12.8274 9.29885L12.1771 6.89648H11.2136C11.4063 7.46397 11.6073 8.03382 11.8011 8.60131C12.0943 9.45491 12.2776 10.0981 12.3604 10.5367V13.0147H13.2766V10.5367L14.3785 6.89648ZM16.827 11.5392V9.942C16.827 9.45491 16.743 9.09905 16.5704 8.86732C16.3411 8.55639 16.0207 8.40033 15.6069 8.40033C15.1931 8.40033 14.8739 8.55639 14.6445 8.86732C14.4683 9.09786 14.3856 9.45373 14.3856 9.942V11.5392C14.3856 12.024 14.4683 12.3834 14.6445 12.6116C14.8727 12.9225 15.1954 13.0786 15.6069 13.0786C16.0183 13.0786 16.3422 12.9225 16.5704 12.6116C16.743 12.3834 16.827 12.024 16.827 11.5392ZM16.0006 11.6941C16.0006 12.1162 15.8729 12.3266 15.6069 12.3266C15.3409 12.3266 15.212 12.115 15.212 11.6941V9.7753C15.212 9.35323 15.3397 9.14397 15.6069 9.14397C15.8741 9.14397 16.0006 9.35323 16.0006 9.7753V11.6941ZM19.8819 13.0147V8.45589H19.0555V11.94C18.8723 12.1989 18.6985 12.3266 18.5342 12.3266C18.423 12.3266 18.3592 12.2616 18.3403 12.1327C18.3308 12.1055 18.3308 12.0051 18.3308 11.8112V8.45471H17.5068V12.0606C17.5068 12.3822 17.534 12.6009 17.5801 12.7381C17.6628 12.9698 17.8461 13.0774 18.1121 13.0774C18.4136 13.0774 18.7269 12.8941 19.0555 12.517V13.0147H19.8819Z" fill="black" fill-opacity="0.7"/>
</svg>
