<svg width="47" height="46" viewBox="0 0 47 46" fill="none" xmlns="http://www.w3.org/2000/svg">
<path d="M23.5443 45.4144H23.5658C36.1012 45.4144 46.2615 35.2522 46.2615 22.7186V22.7079C46.2615 10.1672 36.0958 0.00146484 23.5551 0.00146484C11.0144 0.00146484 0.848633 10.1672 0.848633 22.7079V22.7186C0.848633 35.254 11.0108 45.4144 23.5443 45.4144Z" fill="white"/>
<path d="M31.9487 23.358C31.1093 22.4541 29.8851 21.8546 28.5697 21.5628V21.4411C29.5093 21.0367 30.329 20.4049 30.8802 19.5476C31.4315 18.6885 31.7214 17.7095 31.7214 16.6071C31.7214 15.6567 31.5299 14.8191 31.1308 14.0907C30.7317 13.364 30.1321 12.7824 29.3232 12.3475C28.575 11.943 27.7768 11.6656 26.9231 11.5403C26.0694 11.4132 24.8148 11.3398 23.1593 11.3398H15.041V34.0785H24.2206C25.7866 34.0785 27.077 33.8637 28.0936 33.581C29.1084 33.2982 30.0408 32.7863 30.8892 32.1187C31.6069 31.5639 32.1778 30.8427 32.6019 29.9925C33.0261 29.1442 33.223 28.1491 33.223 27.0287C33.223 25.4931 32.7881 24.2636 31.9505 23.3597L31.9487 23.358ZM20.6769 15.4724H21.2174C22.2268 15.4724 22.9875 15.4938 23.4993 15.5082C24.0094 15.5243 24.4515 15.6191 24.8255 15.7802C25.2193 15.952 25.5092 16.233 25.6971 16.6178C25.8833 17.0026 25.9781 17.3766 25.9781 17.7417C25.9781 18.2375 25.8922 18.6724 25.7204 19.0465C25.5486 19.4205 25.2354 19.714 24.7808 19.9252C24.3656 20.1167 23.9647 20.2653 23.5763 20.2868C23.1879 20.3064 22.5078 20.3601 21.5378 20.3601H20.6787V15.4741L20.6769 15.4724ZM27.0448 28.3746C26.8068 28.8041 26.4309 29.1299 25.9155 29.3518C25.3302 29.6042 24.7539 29.8153 24.1884 29.8368C23.6228 29.8565 22.6027 29.9424 21.1261 29.9424H20.6769V24.1168H21.8689C22.8783 24.1168 23.6855 24.1347 24.2868 24.1508C24.8882 24.1651 25.3607 24.2457 25.7043 24.3763C26.2698 24.5786 26.694 24.8792 26.9768 25.273C27.2596 25.6667 27.401 26.2144 27.401 26.9106C27.401 27.4565 27.2828 27.9451 27.0448 28.3746Z" fill="#BE2729"/>
</svg>
