<svg width="47" height="46" viewBox="0 0 47 46" fill="none" xmlns="http://www.w3.org/2000/svg">
<path d="M23.5717 45.4144H23.5932C36.1285 45.4144 46.2889 35.2522 46.2889 22.7186V22.7079C46.2889 10.1672 36.1231 0.00146484 23.5824 0.00146484C11.0417 0.00146484 0.875977 10.1672 0.875977 22.7079V22.7186C0.875977 35.254 11.0381 45.4144 23.5717 45.4144Z" fill="white"/>
<path d="M36.853 15.2095C35.9348 15.6175 34.9469 15.8931 33.9106 16.0166C34.9684 15.3831 35.7809 14.379 36.1639 13.1817C35.1742 13.7687 34.0771 14.1947 32.9102 14.4255C31.9759 13.4304 30.6444 12.8076 29.1714 12.8076C26.3418 12.8076 24.0474 15.1021 24.0474 17.9299C24.0474 18.3308 24.0921 18.7227 24.1798 19.0968C19.922 18.8838 16.1474 16.8435 13.6203 13.7437C13.1801 14.5007 12.9259 15.3795 12.9259 16.3191C12.9259 18.0963 13.8297 19.6641 15.2042 20.584C14.3649 20.5572 13.5738 20.3281 12.883 19.9433C12.883 19.9648 12.883 19.9863 12.883 20.0077C12.883 22.4901 14.6494 24.5608 16.9922 25.0315C16.5627 25.1479 16.1099 25.2105 15.6427 25.2105C15.3134 25.2105 14.9913 25.1783 14.6781 25.1192C15.3295 27.1542 17.2213 28.6361 19.4638 28.6772C17.7099 30.0518 15.5013 30.8715 13.1013 30.8715C12.6879 30.8715 12.2798 30.8464 11.8789 30.7999C14.1465 32.2532 16.8383 33.1015 19.7323 33.1015C29.1553 33.1015 34.3079 25.2946 34.3079 18.5258C34.3079 18.3039 34.3026 18.0838 34.2936 17.8636C35.2941 17.1406 36.1639 16.2386 36.8494 15.2112L36.853 15.2095Z" fill="#BE2729"/>
</svg>
