<svg width="47" height="40" viewBox="0 0 47 40" fill="none" xmlns="http://www.w3.org/2000/svg">
<path fill-rule="evenodd" clip-rule="evenodd" d="M46.709 2.38546L34.9865 37.7825C34.8354 38.2279 34.5208 38.5457 34.0626 38.7392C33.825 38.8245 33.5769 38.8469 33.2983 38.8034C33.1193 38.7755 32.9464 38.7077 32.7399 38.5939L22.6981 32.5411L15.8767 38.6321C15.5422 38.9469 15.1162 39.0638 14.6387 38.9893C14.4397 38.9582 14.2668 38.8905 14.1368 38.809C13.857 38.643 13.6462 38.4266 13.5075 38.1399C13.3688 37.8532 13.3159 37.5392 13.3625 37.2406L14.6519 28.9812L39.0194 7.11772L10.3105 25.0619L1.55776 19.7608C1.01488 19.4518 0.781642 18.9872 0.824476 18.3211C0.884101 17.678 1.21424 17.2607 1.79811 17.046L44.7028 0.482059C44.9633 0.38002 45.2344 0.340795 45.4931 0.381179C45.8115 0.430881 46.0776 0.553979 46.3084 0.773482C46.7667 1.23239 46.9079 1.76412 46.709 2.38546Z" fill="white"/>
</svg>
